<svg xmlns="http://www.w3.org/2000/svg" width="20" height="20" viewBox="0 0 29 20" fill="none"><g clip-path="url(#clip0_1058_2465)"><path d="M15.4895 19.5349H19.6277C20.7395 19.5349 21.6512 18.436 21.6512 17.093C21.6512 15.75 20.7395 14.6512 19.6277 14.6512H6.58163C5.46977 14.6512 4.55814 15.75 4.55814 17.093C4.55814 18.436 5.46977 19.5349 6.58163 19.5349H10.8826C11.0503 19.0579 11.3621 18.6448 11.7747 18.3526C12.1873 18.0603 12.6804 17.9033 13.186 17.9033C13.6917 17.9033 14.1848 18.0603 14.5974 18.3526C15.01 18.6448 15.3217 19.0579 15.4895 19.5349V19.5349ZM19.6277 4.88372H6.58163C5.46977 4.88372 4.55814 3.78488 4.55814 2.44186C4.55814 1.09884 5.46977 0 6.58163 0H19.6277C20.7395 0 21.6512 1.09884 21.6512 2.44186C21.6512 3.78488 20.7395 4.88372 19.6277 4.88372V4.88372ZM2.28721 12.2093C1.02884 12.2093 0 11.1105 0 9.76744C0 8.42442 1.02884 7.32558 2.28721 7.32558H23.7674C25.0177 7.32558 26.0465 8.42442 26.0465 9.76744C26.0465 11.1105 25.0177 12.2093 23.7674 12.2093H2.28721Z" fill="currentColor"/></g><defs><linearGradient id="paint0_linear_1058_2465" x1="0.0325581" y1="9.73488" x2="26.0791" y2="9.73488" gradientUnits="userSpaceOnUse"><stop stop-color="#FBC67A"/><stop offset="1" stop-color="#FFA561"/></linearGradient>
</defs></svg>